<svg width="73" height="25" fill="none" xmlns="http://www.w3.org/2000/svg"><path fill-rule="evenodd" clip-rule="evenodd" d="M.613 9.384V.516h15.623c.326 0 .645.022.965.044l.111.008-2.258 4.382H5.077v4.434c0 6.112 5.007 11.085 11.16 11.085h11.158v-4.434c0-4.846-3.167-8.93-7.537-10.431L17.391.572c8.075.592 14.468 7.296 14.468 15.463v4.434c0 2.446-2.002 4.434-4.464 4.434h-11.16C7.624 24.903.614 17.94.614 9.384zM55.254.572l.04-.056.039.052.111-.008c.32-.022.64-.044.965-.044h15.623v8.868c0 8.556-7.01 15.52-15.623 15.52H45.25c-2.46 0-4.463-1.99-4.463-4.435v-4.434c0-8.167 6.393-14.87 14.468-15.463zM67.568 4.95h-9.977c.584 1.585 1.05 3.492 1.05 5.543 0 5.509-3.348 9.976-3.348 9.976s-3.347-4.467-3.347-9.976c0-1.787.365-3.44.84-4.889-4.37 1.5-7.536 5.585-7.536 10.431v4.434h11.159c6.153 0 11.16-4.973 11.16-11.085V4.95z" fill="#C5E1E6"/><path d="M17.39.572l-.038-.056-.04.052-2.258 4.382c-.584 1.585-1.05 3.492-1.05 5.543 0 5.509 3.348 9.976 3.348 9.976s3.348-4.467 3.348-9.976c0-1.787-.366-3.44-.842-4.889L17.391.572z" fill="#C5E1E6"/></svg>