<svg width="73" height="25" viewBox="0 0 73 25" fill="none" xmlns="http://www.w3.org/2000/svg">
<path fill-rule="evenodd" clip-rule="evenodd" d="M0.612793 9.38415V0.516113H16.2358C16.5616 0.516113 16.881 0.538234 17.2007 0.560372C17.238 0.562951 17.2752 0.56553 17.3125 0.568074L15.0545 4.95013H5.0765V9.38415C5.0765 15.4964 10.0826 20.4692 16.2358 20.4692H17.3517H27.3951V16.0352C27.3951 11.1888 24.2282 7.10489 19.8582 5.60398L17.3909 0.572405C25.4658 1.16435 31.8588 7.86771 31.8588 16.0352V20.4692C31.8588 22.9146 29.8568 24.9032 27.3951 24.9032H16.2358C7.62305 24.9032 0.612793 17.9396 0.612793 9.38415ZM55.254 0.572405C55.2607 0.561319 55.2932 0.516113 55.2932 0.516113L55.3325 0.568074C55.3697 0.56553 55.407 0.562951 55.4442 0.560372C55.7639 0.538234 56.0833 0.516113 56.4092 0.516113H72.0322V9.38415C72.0322 17.9396 65.0219 24.9032 56.4092 24.9032H45.2499C42.7882 24.9032 40.7862 22.9146 40.7862 20.4692V16.0352C40.7862 7.86771 47.1792 1.16435 55.254 0.572405ZM67.5684 4.95013H57.5905C58.1752 6.53529 58.641 8.44192 58.641 10.4927C58.641 16.0019 55.2932 20.4692 55.2932 20.4692C55.2932 20.4692 51.9455 16.0019 51.9455 10.4927C51.9455 8.70574 52.3114 7.0539 52.7868 5.60398C48.4168 7.10489 45.2499 11.1888 45.2499 16.0352V20.4692H55.2932H56.4092C62.5624 20.4692 67.5684 15.4964 67.5684 9.38415V4.95013Z" fill="#C5E1E6"/>
<path d="M17.3909 0.572405C17.3842 0.561319 17.3517 0.516113 17.3517 0.516113L17.3125 0.568074L15.0545 4.95013C14.4697 6.53529 14.0039 8.44192 14.0039 10.4927C14.0039 16.0019 17.3517 20.4692 17.3517 20.4692C17.3517 20.4692 20.6995 16.0019 20.6995 10.4927C20.6995 8.70574 20.3336 7.0539 19.8582 5.60398L17.3909 0.572405Z" fill="#C5E1E6"/>
</svg>
